<svg xmlns="http://www.w3.org/2000/svg" viewBox="0 0 2281 3421"><filter id="b"><feGaussianBlur stdDeviation="12" /></filter><path fill="#92918a" d="M0 0h2285v3421H0z"/><g filter="url(#b)" transform="translate(6.7 6.7) scale(13.36328)" fill-opacity=".5"><ellipse fill="#241600" rx="1" ry="1" transform="matrix(161.78504 42.63818 -14.67101 55.66726 50 221.4)"/><path fill="#fbf8f1" d="M186 174L-16 78l183-94z"/><ellipse fill="#73b5e0" rx="1" ry="1" transform="matrix(15.98372 41.94133 -131.00578 49.92592 57.6 25.2)"/><ellipse fill="#6c5343" rx="1" ry="1" transform="matrix(-1.51204 31.49273 -73.7623 -3.54151 37.4 141.7)"/><ellipse fill="#ffd8bc" rx="1" ry="1" transform="rotate(-123.9 107.4 40.8) scale(23.57254 47.94836)"/><ellipse fill="#ffe1c8" rx="1" ry="1" transform="matrix(94.70656 -21.17674 5.19817 23.24725 131.8 88)"/><ellipse fill="#8a7775" rx="1" ry="1" transform="matrix(-1.25264 18.0216 -84.82766 -5.89618 91 188)"/><ellipse fill="#644727" cx="140" cy="116" rx="31" ry="6"/><path fill="#14211d" d="M125 224h46v32h-46z"/><path fill="#2e351c" d="M109 271v-63l-125 2z"/></g></svg>